<svg xmlns="http://www.w3.org/2000/svg" viewBox="0 0 24 24" fill="none">
  <path d="M9.2 18.7C4.7 20 4.7 16.5 2.9 15.9M15.5 21V17.7C15.5 16.8 15.6 16 15.1 15.4C17.9 15.1 20.9 14 20.9 9.1C20.9 7.9 20.5 6.7 19.8 5.8C20.1 4.9 20.1 3.9 19.7 3C19.7 3 18.7 2.7 15.5 4.8C13.7 4.3 11.8 4.3 10 4.8C6.8 2.7 5.8 3 5.8 3C5.4 3.9 5.4 4.9 5.7 5.8C5 6.7 4.6 7.9 4.6 9.1C4.6 14 7.6 15.1 10.4 15.4C9.9 16 9.8 16.8 9.8 17.7V21" stroke="#ff99c9" stroke-width="1.7" stroke-linecap="round" stroke-linejoin="round" />
</svg>
