<svg xmlns="http://www.w3.org/2000/svg" viewBox="0 0 24 24" fill="none">
  <path d="M4.5 19.5L5.4 16.1C4.4 14.6 3.9 12.8 3.9 11C3.9 6.5 7.6 2.9 12 2.9C16.4 2.9 20.1 6.5 20.1 11C20.1 15.4 16.4 19.1 12 19.1C10.3 19.1 8.6 18.6 7.1 17.7L4.5 19.5Z" stroke="#ff99c9" stroke-width="1.7" stroke-linecap="round" stroke-linejoin="round" />
  <path d="M9.1 8.4C9.3 8.1 9.5 8 9.8 8H10.3C10.5 8 10.7 8.1 10.8 8.4L11.4 10C11.5 10.2 11.5 10.4 11.4 10.6L10.9 11.4C11.3 12.2 11.9 12.8 12.8 13.2L13.6 12.7C13.8 12.6 14 12.6 14.2 12.7L15.8 13.3C16.1 13.4 16.2 13.6 16.2 13.8V14.3C16.2 14.6 16.1 14.8 15.8 15C15.2 15.4 14.5 15.5 13.8 15.3C11.7 14.7 10 13 9.4 10.9C9.2 10.2 9.3 9.5 9.7 8.9L9.1 8.4Z" stroke="#ff99c9" stroke-width="1.7" stroke-linecap="round" stroke-linejoin="round" />
</svg>
